#### ##       ##       ##     ##  ######  ####  #######  ##    ## 
 ##  ##       ##       ##     ## ##    ##  ##  ##     ## ###   ## 
 ##  ##       ##       ##     ## ##        ##  ##     ## ####  ## 
 ##  ##       ##       ##     ##  ######   ##  ##     ## ## ## ## 
 ##  ##       ##       ##     ##       ##  ##  ##     ## ##  #### 
 ##  ##       ##       ##     ## ##    ##  ##  ##     ## ##   ### 
#### ######## ########  #######   ######  ####  #######  ##    ## 


Movie Info
Plot: Two British comic-book geeks traveling across the U.S. encounter an alien outside Area 51.
IMDB: http://www.imdb.com/title/tt1092026/
IMDB Rating: 7.8
Trailer:



General Info
Size: 1.33GB
Format: AVI
Runtime: 1:35:24



Sources
Video - Paul 2011 CAM XViD - IMAGiNE
Audio - Paul 2011 CAM XViD - IMAGiNE
(THANKS)



Video Info
ID : 0
Format : MPEG-4 Visual
Format profile : Advanced Simple@L5
Format settings, BVOP : Yes
Format settings, QPel : No
Format settings, GMC : No warppoints
Format settings, Matrix : Default (H.263)
Muxing mode : Packed bitstream
Codec ID : XVID
Codec ID/Hint : XviD
Duration : 1h 35mn
Bit rate : 1 874 Kbps
Width : 720 pixels
Height : 288 pixels
Display aspect ratio : 2.500
Frame rate : 25.000 fps
Color space : YUV
Chroma subsampling : 4:2:0
Bit depth : 8 bits
Scan type : Progressive
Compression mode : Lossy
Bits/(Pixel*Frame) : 0.362
Stream size : 1.25 GiB (93%)
Writing library : XviD 1.0.3 (UTC 2004-12-20)



Audio Info
ID : 1
Format : MPEG Audio
Format version : Version 1
Format profile : Layer 3
Codec ID : 55
Codec ID/Hint : MP3
Duration : 1h 35mn
Bit rate mode : Constant
Bit rate : 128 Kbps
Channel(s) : 2 channels
Sampling rate : 44.1 KHz
Compression mode : Lossy
Stream size : 87.3 MiB (6%)
Alignment : Split accross interleaves
Interleave, duration : 40 ms (1.00 video frame)
Interleave, preload duration : 500 ms



Encoders Notes
I dropped the source into vdubmod.
I lowered the brightness.
Increased the gamma & saturation.
Then i changed the colours with a rgb eq.
Finaly i sharpened it.
Yes mine is darker than imagines but it has alot more color.
The brighness always gives it a kind of tint.
This time it was white & the blacks were'nt black.
It has something similar to flicker,
a light goes from the top to the bottem of the screen prety ofen.
It's not as bad as flicker & i have no idea how to remove it.
People do get up and walk past the camara.
The edge of the video does get prety dark sometimes.
The audio is prety good for cam audio.
All in all its not a bad for a cam.
Here is a screenshot comparison beetween mine & the source. 
http://screenshotcomparison.com/comparison/29276
Check the sample first to check ur happy with the quality.
Enjoy...



I am looking for;
Cammers, Cams, Screeners (any type), Cam audio, Line audio,
Un-released R6's R5's R4's R2's R1's,
A 25GB+ FTP server, A Windows Server
& a syncer.
If you can provide any of these please
contact me at illusion@hushmail.me






================================== 
http://thepiratebay.org/user/hiest
==================================






Screen Shots:
 
http://leetleech.org/images/52740165450495158617.png
 
http://leetleech.org/images/44779998888046856159.jpg
 
http://leetleech.org/images/19253187666326577291.png
 
http://leetleech.org/images/02214493588808228235.png
 
http://leetleech.org/images/26259053377592731084.png
 
http://leetleech.org/images/62862525508859696647.jpg


#### ##       ##       ##     ##  ######  ####  #######  ##    ## 
 ##  ##       ##       ##     ## ##    ##  ##  ##     ## ###   ## 
 ##  ##       ##       ##     ## ##        ##  ##     ## ####  ## 
 ##  ##       ##       ##     ##  ######   ##  ##     ## ## ## ## 
 ##  ##       ##       ##     ##       ##  ##  ##     ## ##  #### 
 ##  ##       ##       ##     ## ##    ##  ##  ##     ## ##   ### 
#### ######## ########  #######   ######  ####  #######  ##    ## 

